<svg viewBox="0 0 20 20" aria-hidden="true" xmlns:xlink="http://www.w3.org/1999/xlink" xmlns="http://www.w3.org/2000/svg"><defs><linearGradient id="a"><stop offset="0" stop-color="#fff"/></linearGradient><linearGradient xlink:href="#a" id="b" x1="4.284" y1="5.417" x2="12.65" y2="5.417" gradientUnits="userSpaceOnUse" gradientTransform="translate(7.117 9.183)"/></defs><path d="M15.522 19.1a.79.79 0 0 0 .79-.79v-5.373l2.059 2.455a.79.79 0 1 0 1.211-1.015l-3.352-3.995a.79.79 0 0 0-.995-.179.784.784 0 0 0-.299.221l-3.35 3.99a.79.79 0 1 0 1.21 1.017l1.936-2.306v5.185c0 .436.353.79.79.79z"/><path d="M1.163 2.355c-.576 0-.566-.027-.566.526v14.157c0 .562-.009.533.556.533h17.723c.566 0 .556.028.556-.534V2.882c0-.553.01-.525-.556-.525H1.163zm.659.927h.943v.954h-.943zm15.467 0h.944v.954h-.944zM3.9 4.236H16.13v11.447H3.87zm-2.077.954h.943v.954h-.943zm15.467 0h.944v.954h-.944zM1.822 7.097h.943v.954h-.943zm15.467 0h.944v.954h-.944zM1.822 9.005h.943v.954h-.943zm15.467 0h.944v.954h-.944zM1.822 10.913h.943v.954h-.943zm15.467 0h.944v.954h-.944zM1.822 12.821h.943l-.027.954h-.916zm15.467 0h.944v.954h-.944zM1.822 14.73h.916v.954h-.916zm15.467 0h.944v.954h-.944z"/><path d="M7.545 7.266a.375.38 0 0 1 .372-.381.378.383 0 0 1 .188.047l4.84 2.693a.376.382 0 0 1 0 .668l-4.84 2.694a.379.384 0 0 1-.56-.334z"/><path d="M15.522 19.1a.79.79 0 0 0 .79-.79v-5.373l2.059 2.455a.79.79 0 1 0 1.211-1.015l-3.352-3.995a.79.79 0 0 0-.995-.179.784.784 0 0 0-.299.221l-3.35 3.99a.79.79 0 1 0 1.21 1.017l1.936-2.306v5.185c0 .436.353.79.79.79z" stroke="url(#b)" stroke-width="2.5" stroke-linejoin="round"/><ellipse cx="15.381" cy="15.955" rx="4.357" ry="3.92" fill="#fff" stroke="#fff" stroke-width="1.47" stroke-linecap="square" stroke-linejoin="round"/><path d="M15.522 19.1a.79.79 0 0 0 .79-.79v-5.373l2.059 2.455a.79.79 0 1 0 1.211-1.015l-3.352-3.995a.79.79 0 0 0-.995-.179.784.784 0 0 0-.299.221l-3.35 3.99a.79.79 0 1 0 1.21 1.017l1.936-2.306v5.185c0 .436.353.79.79.79z"/></svg>
